<?xml version="1.0" encoding="UTF-8"?>
<svg width="11px" height="12px" viewBox="0 0 11 12" version="1.1" xmlns="http://www.w3.org/2000/svg" xmlns:xlink="http://www.w3.org/1999/xlink">
    <!-- Generator: Sketch 50.2 (55047) - http://www.bohemiancoding.com/sketch -->
    <title>my_home_call_ic</title>
    <desc>Created with Sketch.</desc>
    <defs></defs>
    <g id="Page-1" stroke="none" stroke-width="1" fill="none" fill-rule="evenodd" opacity="0.6">
        <g id="P2首页-有通讯记录情况" transform="translate(-16.000000, -362.000000)">
            <g id="Group-5-Copy" transform="translate(0.000000, 347.000000)">
                <g id="my_home_call_ic" transform="translate(16.000000, 15.000000)">
                    <path d="M7.44131224,11.8155862 C6.93022001,11.8155862 6.49716025,11.6194837 6.105568,11.4074478 C5.93479538,11.3151162 5.76075438,11.2135923 5.58875611,11.1057359 C5.11361602,10.8077009 4.6409272,10.4541035 4.18376316,10.0547489 C3.52150856,9.4764507 2.90010866,8.81133627 2.33672242,8.07779023 C1.73574986,7.26621172 1.2217978,6.3761922 0.809982479,5.43408294 C0.489885946,4.70114972 0.109528739,3.73125926 0.00963901039,2.7268466 C-0.0618567053,2.00780397 0.268249228,1.22380238 0.871060247,0.680639213 C1.29349779,0.299873459 1.82644728,0.0541324704 2.33345404,0.00592393073 C2.37451301,0.00183846126 2.41475489,0 2.45377112,0 C3.19650947,0 3.57523249,0.706377671 3.84752903,1.39723056 C4.08223925,1.99268773 4.27241785,2.81407137 3.8446692,3.3451824 C3.58565043,3.66691312 3.16831973,3.7733396 2.76467535,3.87629343 C2.67295656,3.89978488 2.58185059,3.92286778 2.4931959,3.94840197 L2.38717797,3.97883871 L2.42578565,4.08220109 C2.76896509,5.00184027 3.27352057,5.8941068 3.92556149,6.7342836 C4.55758362,7.59693047 5.29603223,8.31944575 6.11843723,8.87976789 L6.21056457,8.94247984 L6.26510558,8.84524567 C6.35805001,8.67957988 6.42791154,8.52739614 6.48939786,8.39318847 C6.67630809,7.98545862 6.78906704,7.73930908 7.30506184,7.62532449 C7.3608285,7.61735782 7.4270131,7.6128638 7.49442335,7.6128638 C8.44899329,7.6128638 9.58577517,8.50247478 9.92691187,9.26768321 C10.0603024,9.56714812 10.0114811,9.91380021 9.77738369,10.3278625 C9.64297174,10.5652283 9.47546749,10.7772642 9.35841879,10.9135146 C8.91820946,11.4256282 8.28434887,11.7516486 7.61943871,11.8080281 C7.55876949,11.813135 7.49953018,11.8155862 7.44131224,11.8155862" id="Fill-1" fill="#888888"></path>
                    <path d="M10.056,0.14625 L7,3.20225 L7,1.71525 C7,1.43925 6.777,1.21525 6.5,1.21525 C6.224,1.21525 6,1.43925 6,1.71525 L6,4.40925 C6,4.68525 6.224,4.90925 6.5,4.90925 L9.194,4.90925 C9.47,4.90925 9.694,4.68525 9.694,4.40925 C9.694,4.13225 9.47,3.90925 9.194,3.90925 L7.707,3.90925 L10.763,0.85325 C10.958,0.65825 10.958,0.34125 10.763,0.14625 C10.568,-0.04875 10.251,-0.04875 10.056,0.14625 Z" id="Fill-8" fill="#B8B8B7" transform="translate(8.454625, 2.454625) rotate(-180.000000) translate(-8.454625, -2.454625) "></path>
                </g>
            </g>
        </g>
    </g>
</svg>