<?xml version="1.0" encoding="UTF-8"?>
<svg width="375px" height="72px" viewBox="0 0 375 72" version="1.1" xmlns="http://www.w3.org/2000/svg" xmlns:xlink="http://www.w3.org/1999/xlink">
    <!-- Generator: Sketch 50.2 (55047) - http://www.bohemiancoding.com/sketch -->
    <title>my_homepage_banner</title>
    <desc>Created with Sketch.</desc>
    <defs>
        <linearGradient x1="6.30777685%" y1="91.0425619%" x2="1.60521902%" y2="10.7255834%" id="linearGradient-1">
            <stop stop-color="#D8EDFF" stop-opacity="0" offset="0%"></stop>
            <stop stop-color="#D8EDFF" stop-opacity="0.801658741" offset="100%"></stop>
        </linearGradient>
        <linearGradient x1="94.7263016%" y1="0%" x2="17.9400812%" y2="100%" id="linearGradient-2">
            <stop stop-color="#D8EDFF" stop-opacity="0.5" offset="0%"></stop>
            <stop stop-color="#FFFFFF" stop-opacity="0.5" offset="100%"></stop>
        </linearGradient>
        <rect id="path-3" x="0" y="0" width="343" height="52" rx="26"></rect>
        <filter x="-3.1%" y="-16.3%" width="106.1%" height="140.4%" filterUnits="objectBoundingBox" id="filter-5">
            <feMorphology radius="0.5" operator="dilate" in="SourceAlpha" result="shadowSpreadOuter1"></feMorphology>
            <feOffset dx="0" dy="2" in="shadowSpreadOuter1" result="shadowOffsetOuter1"></feOffset>
            <feGaussianBlur stdDeviation="3" in="shadowOffsetOuter1" result="shadowBlurOuter1"></feGaussianBlur>
            <feComposite in="shadowBlurOuter1" in2="SourceAlpha" operator="out" result="shadowBlurOuter1"></feComposite>
            <feColorMatrix values="0 0 0 0 0   0 0 0 0 0   0 0 0 0 0  0 0 0 0.07 0" type="matrix" in="shadowBlurOuter1"></feColorMatrix>
        </filter>
        <linearGradient x1="0.000103809524%" y1="49.9993916%" x2="100.000104%" y2="49.9993916%" id="linearGradient-6">
            <stop stop-color="#72C4FF" offset="0%"></stop>
            <stop stop-color="#4490FF" offset="100%"></stop>
        </linearGradient>
        <linearGradient x1="0.00163113377%" y1="49.998051%" x2="108.466596%" y2="100%" id="linearGradient-7">
            <stop stop-color="#B8D6FF" offset="0%"></stop>
            <stop stop-color="#569EFF" offset="100%"></stop>
        </linearGradient>
        <path d="M4.645,0.788 C2.264,0.7912 0.332,1.4048 0.275,2.1656 C0.272,2.1784 0.272,2.1904 0.272,2.2016 C0.272,2.3568 0.352,2.5064 0.497,2.6464 C0.663,2.8104 0.927,2.96 1.262,3.092 C2.069,3.4056 3.288,3.6056 4.651,3.604 C6.014,3.6032 7.234,3.3992 8.037,3.084 C8.372,2.9504 8.634,2.7992 8.804,2.6352 C8.949,2.4944 9.028,2.3448 9.027,2.1904 C9.027,2.1784 9.027,2.1664 9.024,2.1552 C8.963,1.396 7.034,0.788 4.662,0.788 C4.656,0.788 4.65,0.788 4.645,0.788" id="path-8"></path>
        <linearGradient x1="-0.00749056879%" y1="50.0194302%" x2="100.004408%" y2="49.9984274%" id="linearGradient-10">
            <stop stop-color="#FFB60B" offset="0%"></stop>
            <stop stop-color="#FFDF54" offset="100%"></stop>
        </linearGradient>
        <path d="M10.43,1.1856 C10.236,1.4064 9.933,1.6072 9.548,1.7856 C8.625,2.2072 7.22,2.48 5.651,2.4824 C4.082,2.484 2.68,2.2152 1.752,1.7952 C1.365,1.6184 1.063,1.4176 0.871,1.1976 C0.704,1.0104 0.611,0.8104 0.611,0.6024 L0.613,1.6008 C0.615,2.572 2.87,3.3576 5.653,3.3552 C8.436,3.3512 10.692,2.5576 10.69,1.5864 L10.688,0.5904 C10.688,0.7968 10.597,0.9976 10.43,1.1856" id="path-11"></path>
        <linearGradient x1="-0.000793729432%" y1="49.9818569%" x2="99.9986682%" y2="49.9818569%" id="linearGradient-13">
            <stop stop-color="#FFA000" offset="0%"></stop>
            <stop stop-color="#FFC600" offset="100%"></stop>
        </linearGradient>
        <path d="M5.139,0.22275 C2.758,0.2265 0.826,0.801 0.768,1.515 C0.766,1.52625 0.766,1.53675 0.766,1.54875 C0.766,1.69275 0.846,1.83375 0.991,1.965 C1.157,2.118 1.421,2.259 1.757,2.3835 C2.563,2.67675 3.782,2.865 5.144,2.86275 C6.508,2.86125 7.728,2.67 8.53,2.3745 C8.866,2.25 9.129,2.109 9.297,1.9545 C9.443,1.82325 9.522,1.683 9.521,1.5375 C9.521,1.527 9.521,1.515 9.518,1.50375 C9.457,0.792 7.528,0.22275 5.156,0.22275 C5.15,0.22275 5.144,0.22275 5.139,0.22275" id="path-14"></path>
        <linearGradient x1="-0.00742089439%" y1="50.0168039%" x2="100.004478%" y2="49.9958012%" id="linearGradient-16">
            <stop stop-color="#FFB60B" offset="0%"></stop>
            <stop stop-color="#FFDF54" offset="100%"></stop>
        </linearGradient>
        <path d="M9.924,0.59625 C9.73,0.80175 9.427,0.99075 9.042,1.158 C8.119,1.55325 6.714,1.809 5.145,1.81125 C3.577,1.81275 2.174,1.56075 1.246,1.16775 C0.859,1.00125 0.556,0.813 0.365,0.6075 C0.197,0.432 0.105,0.24375 0.105,0.0495 L0.107,0.984 C0.109,1.8945 2.364,2.6325 5.147,2.62875 C7.93,2.625 10.186,1.88175 10.184,0.97125 L10.182,0.03675 C10.182,0.231 10.092,0.41925 9.924,0.59625" id="path-17"></path>
        <linearGradient x1="-0.000733207563%" y1="50.0081543%" x2="99.9987288%" y2="50.0081543%" id="linearGradient-19">
            <stop stop-color="#FFA000" offset="0%"></stop>
            <stop stop-color="#FFC600" offset="100%"></stop>
        </linearGradient>
        <path d="M4.471,0.4664 C2.09,0.4696 0.158,1.084 0.101,1.8448 C0.098,1.856 0.098,1.8696 0.098,1.8808 C0.098,2.0352 0.178,2.1848 0.323,2.3248 C0.489,2.4888 0.753,2.6392 1.089,2.7712 C1.895,3.084 3.114,3.2848 4.476,3.2832 C5.84,3.2808 7.06,3.0776 7.863,2.7624 C8.198,2.628 8.461,2.4784 8.63,2.3144 C8.775,2.1736 8.854,2.024 8.853,1.8696 C8.853,1.8568 8.853,1.8456 8.85,1.8336 C8.789,1.0736 6.861,0.4664 4.488,0.4664 C4.482,0.4664 4.476,0.4664 4.471,0.4664" id="path-20"></path>
        <linearGradient x1="-0.00600684679%" y1="50.0131345%" x2="100.005892%" y2="49.9921377%" id="linearGradient-22">
            <stop stop-color="#FFB60B" offset="0%"></stop>
            <stop stop-color="#FFDF54" offset="100%"></stop>
        </linearGradient>
        <path d="M10.256,0.81075 C10.062,1.017 9.759,1.20525 9.374,1.37325 C8.451,1.7685 7.046,2.02425 5.477,2.02575 C3.908,2.028 2.506,1.776 1.578,1.38225 C1.191,1.21575 0.888,1.02825 0.697,0.822 C0.53,0.6465 0.437,0.45825 0.437,0.264 L0.439,1.1985 C0.442,2.10975 2.696,2.847 5.479,2.844 C8.262,2.84025 10.518,2.097 10.516,1.18575 L10.514,0.252 C10.514,0.4455 10.424,0.63375 10.256,0.81075" id="path-23"></path>
        <linearGradient x1="0.000495088733%" y1="49.9898385%" x2="99.9999571%" y2="49.9898385%" id="linearGradient-25">
            <stop stop-color="#FFA000" offset="0%"></stop>
            <stop stop-color="#FFC600" offset="100%"></stop>
        </linearGradient>
        <path d="M4.695,0.6336 C2.315,0.636 0.383,1.2504 0.325,2.0112 C0.321,2.024 0.321,2.0352 0.321,2.0472 C0.322,2.2024 0.402,2.352 0.547,2.492 C0.714,2.656 0.977,2.8048 1.313,2.9384 C2.12,3.2512 3.338,3.4512 4.701,3.4496 C6.063,3.448 7.285,3.244 8.087,2.9296 C8.421,2.7952 8.684,2.6448 8.854,2.4808 C8.999,2.3408 9.078,2.1904 9.077,2.0352 C9.077,2.024 9.077,2.012 9.074,2.0008 C9.014,1.2408 7.086,0.6336 4.716,0.6336 C4.709,0.6336 4.702,0.6336 4.695,0.6336" id="path-26"></path>
        <linearGradient x1="0.00759249986%" y1="50.0057257%" x2="100.008069%" y2="49.9847229%" id="linearGradient-28">
            <stop stop-color="#FFB60B" offset="0%"></stop>
            <stop stop-color="#FFDF54" offset="100%"></stop>
        </linearGradient>
        <path d="M10.481,0.966 C10.286,1.173 9.984,1.36125 9.598,1.52925 C8.675,1.9245 7.27,2.1795 5.702,2.181 C4.133,2.184 2.731,1.93125 1.803,1.53825 C1.416,1.37175 1.113,1.18425 0.921,0.97875 C0.753,0.8025 0.662,0.6135 0.661,0.42 L0.663,1.3545 C0.665,2.26275 2.908,2.99925 5.679,3 L5.704,3 C8.486,2.99625 10.742,2.25375 10.74,1.3425 L10.738,0.40725 C10.739,0.6015 10.647,0.78975 10.481,0.966" id="path-29"></path>
        <linearGradient x1="0.00239607072%" y1="50.0113943%" x2="100.001858%" y2="50.0113943%" id="linearGradient-31">
            <stop stop-color="#FFA000" offset="0%"></stop>
            <stop stop-color="#FFC600" offset="100%"></stop>
        </linearGradient>
        <path d="M4.51,0.4352 C2.13,0.4384 0.197,1.0528 0.141,1.8136 C0.137,1.8264 0.137,1.8384 0.137,1.8496 C0.137,2.004 0.217,2.1544 0.363,2.2936 C0.529,2.4576 0.792,2.608 1.129,2.74 C1.935,3.0528 3.153,3.2536 4.516,3.252 C5.879,3.2504 7.1,3.0464 7.902,2.7312 C8.237,2.5968 8.5,2.4472 8.669,2.2832 C8.814,2.1424 8.893,1.9928 8.893,1.8384 C8.893,1.8264 8.893,1.8144 8.889,1.8024 C8.829,1.0424 6.9,0.4352 4.527,0.4352 C4.521,0.4352 4.516,0.4352 4.51,0.4352" id="path-32"></path>
        <linearGradient x1="-0.000555047967%" y1="50.0163438%" x2="100.000029%" y2="49.995347%" id="linearGradient-34">
            <stop stop-color="#FFB60B" offset="0%"></stop>
            <stop stop-color="#FFDF54" offset="100%"></stop>
        </linearGradient>
        <path d="M10.296,0.7815 C10.102,0.98775 9.799,1.17525 9.413,1.344 C8.491,1.73925 7.085,1.995 5.517,1.9965 C3.949,1.99875 2.546,1.74675 1.618,1.353 C1.231,1.18725 0.928,0.999 0.736,0.79275 C0.569,0.61725 0.477,0.429 0.476,0.23475 L0.478,1.16925 C0.48,2.0805 2.735,2.81775 5.518,2.81475 C8.302,2.811 10.557,2.06775 10.555,1.1565 L10.554,0.22275 C10.555,0.41625 10.463,0.6045 10.296,0.7815" id="path-35"></path>
        <linearGradient x1="0.0052217475%" y1="49.993114%" x2="100.004684%" y2="49.993114%" id="linearGradient-37">
            <stop stop-color="#FFA000" offset="0%"></stop>
            <stop stop-color="#FFC600" offset="100%"></stop>
        </linearGradient>
        <path d="M0.663,0.976 C0.655,0.9864 0.649,0.9968 0.645,1.0096 C0.579,1.1544 0.59,1.3168 0.667,1.488 C0.754,1.6872 0.937,1.9008 1.197,2.1168 C1.821,2.6304 2.88,3.152 4.162,3.5232 C5.445,3.8936 6.678,4.0352 7.567,3.9584 C7.939,3.9248 8.25,3.8544 8.479,3.7464 C8.676,3.6544 8.814,3.5352 8.879,3.3896 C8.884,3.3784 8.89,3.3672 8.892,3.3552 C9.16,2.6232 7.597,1.5216 5.359,0.8744 C4.302,0.5688 3.281,0.4184 2.458,0.4184 C1.537,0.4184 0.863,0.6064 0.663,0.976" id="path-38"></path>
        <linearGradient x1="0.545051802%" y1="16.437635%" x2="99.4623779%" y2="83.5986964%" id="linearGradient-40">
            <stop stop-color="#FFB60B" offset="0%"></stop>
            <stop stop-color="#FFDF54" offset="100%"></stop>
        </linearGradient>
        <path d="M0.6,1.00666667 C0.188,1.95916667 1.971,3.37083333 4.588,4.15916667 C7.205,4.9475 9.665,4.81333333 10.077,3.86083333 L10.5,2.88416667 C10.413,3.08666667 10.241,3.2575 10.004,3.395 C9.728,3.555 9.357,3.66583333 8.919,3.73083333 C7.871,3.88166667 6.435,3.74916667 4.959,3.30416667 C3.484,2.86 2.28,2.19833333 1.586,1.52333333 C1.299,1.23833333 1.1,0.956666667 1.014,0.6875 C0.937,0.455833333 0.936,0.233333333 1.023,0.0308333333 L0.6,1.00666667 Z" id="path-41"></path>
        <linearGradient x1="-1.02109786%" y1="28.8735154%" x2="94.1001747%" y2="90.649651%" id="linearGradient-43">
            <stop stop-color="#FFA000" offset="0%"></stop>
            <stop stop-color="#FFC600" offset="100%"></stop>
        </linearGradient>
        <path d="M4.651,0.2565 C2.27,0.25875 0.338,0.834 0.28,1.548 C0.278,1.55925 0.278,1.56975 0.278,1.58025 C0.278,1.72575 0.358,1.86675 0.503,1.998 C0.669,2.15175 0.933,2.292 1.268,2.41575 C2.075,2.709 3.294,2.89725 4.656,2.89575 C6.02,2.89425 7.24,2.703 8.043,2.4075 C8.378,2.283 8.64,2.142 8.809,1.9875 C8.954,1.8555 9.034,1.716 9.033,1.5705 C9.033,1.55925 9.033,1.548 9.03,1.53675 C8.969,0.825 7.042,0.2565 4.672,0.2565 C4.665,0.2565 4.658,0.2565 4.651,0.2565" id="path-44"></path>
        <linearGradient x1="-0.0102409943%" y1="49.9984845%" x2="100.001659%" y2="49.9774757%" id="linearGradient-46">
            <stop stop-color="#FFB60B" offset="0%"></stop>
            <stop stop-color="#FFDF54" offset="100%"></stop>
        </linearGradient>
        <path d="M10.436,0.6285 C10.242,0.83475 9.939,1.02375 9.554,1.191 C8.631,1.58625 7.226,1.842 5.657,1.8435 C4.088,1.845 2.686,1.593 1.757,1.20075 C1.371,1.0335 1.068,0.846 0.877,0.6405 C0.709,0.465 0.617,0.276 0.617,0.0825 L0.619,1.017 C0.621,1.9275 2.876,2.66625 5.659,2.66175 C8.442,2.65875 10.698,1.91475 10.696,1.005 L10.693,0.06975 C10.694,0.264 10.603,0.45225 10.436,0.6285" id="path-47"></path>
        <linearGradient x1="-0.00317392557%" y1="50.0036246%" x2="99.996288%" y2="50.0036246%" id="linearGradient-49">
            <stop stop-color="#FFA000" offset="0%"></stop>
            <stop stop-color="#FFC600" offset="100%"></stop>
        </linearGradient>
        <path d="M0.237,1.475 C0.23,1.48666667 0.226,1.49833333 0.221,1.51 C0.169,1.66583333 0.195,1.8325 0.288,2.00666667 C0.392,2.20916667 0.595,2.4175 0.873,2.62666667 C1.542,3.12416667 2.647,3.60166667 3.959,3.90833333 C5.271,4.21583333 6.515,4.28833333 7.394,4.15416667 C7.761,4.09666667 8.066,4.005 8.284,3.87916667 C8.471,3.77083333 8.599,3.63916667 8.652,3.48333333 C8.655,3.4725 8.659,3.46 8.66,3.44666667 C8.861,2.67083333 7.202,1.62083333 4.911,1.08416667 C4.016,0.875 3.154,0.774166667 2.419,0.774166667 C1.271,0.774166667 0.429,1.01833333 0.237,1.475" id="path-50"></path>
        <linearGradient x1="0.341341489%" y1="21.2095646%" x2="99.6820869%" y2="78.8248229%" id="linearGradient-52">
            <stop stop-color="#FFB60B" offset="0%"></stop>
            <stop stop-color="#FFDF54" offset="100%"></stop>
        </linearGradient>
        <path d="M0.249,1.52833333 C-0.079,2.50166667 1.822,3.8025 4.502,4.43 C7.182,5.05666667 9.622,4.77333333 9.95,3.79916667 L10.287,2.79916667 C10.217,3.0075 10.061,3.18833333 9.837,3.33916667 C9.574,3.515 9.216,3.6475 8.783,3.74 C7.752,3.95333333 6.307,3.90833333 4.797,3.55416667 C3.287,3.20083333 2.029,2.61333333 1.278,1.9825 C0.967,1.71666667 0.743,1.4475 0.633,1.18416667 C0.536,0.9575 0.516,0.735833333 0.586,0.528333333 L0.249,1.52833333 Z" id="path-53"></path>
        <linearGradient x1="-0.913476355%" y1="32.4054813%" x2="95.3543984%" y2="86.3620817%" id="linearGradient-55">
            <stop stop-color="#FFA000" offset="0%"></stop>
            <stop stop-color="#FFC600" offset="100%"></stop>
        </linearGradient>
        <linearGradient x1="0.00413190142%" y1="49.9997884%" x2="99.9980793%" y2="49.9915231%" id="linearGradient-56">
            <stop stop-color="#FFB60B" offset="0%"></stop>
            <stop stop-color="#FFDF54" offset="100%"></stop>
        </linearGradient>
        <path d="M8.073,0.77 C5.40242857,4.031 0,4.862 0,4.862 L5.28357143,8.058 C7.65792857,8.058 12.7632143,2.304 12.7632143,2.304 C12.7632143,2.304 8.93564286,0.74 8.18907143,0.74 C8.12964286,0.74 8.09064286,0.749 8.073,0.77" id="path-57"></path>
        <linearGradient x1="-0.000283739542%" y1="50.0054236%" x2="100.00034%" y2="49.9895641%" id="linearGradient-59">
            <stop stop-color="#FFB60B" offset="0%"></stop>
            <stop stop-color="#FFDF54" offset="100%"></stop>
        </linearGradient>
    </defs>
    <g id="Page-1" stroke="none" stroke-width="1" fill="none" fill-rule="evenodd">
        <g id="P2首页-有通讯记录情况-Copy-9" transform="translate(0.000000, -172.000000)">
            <g id="Group-11" transform="translate(16.000000, 182.000000)">
                <mask id="mask-4" fill="white">
                    <use xlink:href="#path-3"></use>
                </mask>
                <g id="Mask">
                    <use fill="black" fill-opacity="1" filter="url(#filter-5)" xlink:href="#path-3"></use>
                    <use fill="url(#linearGradient-1)" fill-rule="evenodd" xlink:href="#path-3"></use>
                    <use stroke="#FFFFFF" stroke-width="1" fill="url(#linearGradient-2)" fill-rule="evenodd" xlink:href="#path-3"></use>
                </g>
                <g id="Group-12" opacity="0.9" mask="url(#mask-4)">
                    <g transform="translate(27.000000, 11.000000)">
                        <path d="M22.1970108,0 L4.11877867,0 C1.8497509,0 0,1.8497509 0,4.11877867 L0,45.207912 C0,47.4769398 1.8497509,49.3266907 4.11877867,49.3266907 L22.1970108,49.3266907 C24.4660386,49.3266907 26.3157895,47.4769398 26.3157895,45.207912 L26.3157895,4.11877867 C26.3157895,1.8497509 24.4660386,0 22.1970108,0 Z M10.7038919,3.28022493 L15.6365609,3.28022493 C16.0805012,3.28022493 16.4504513,3.65017511 16.4504513,4.09411533 C16.4504513,4.53805554 16.0805012,4.90800572 15.6365609,4.90800572 L10.7038919,4.90800572 C10.2599517,4.90800572 9.89000148,4.53805554 9.89000148,4.09411533 C9.86533813,3.65017511 10.2352883,3.28022493 10.7038919,3.28022493 Z M13.1702264,47.6742465 C11.8137424,47.6742465 10.7038919,46.564396 10.7038919,45.207912 C10.7038919,43.851428 11.8137424,42.7415775 13.1702264,42.7415775 C14.5267104,42.7415775 15.6365609,43.851428 15.6365609,45.207912 C15.6365609,46.564396 14.5267104,47.6742465 13.1702264,47.6742465 Z M24.6633453,41.0891333 L1.65244414,41.0891333 L1.65244414,8.212894 L24.6633453,8.212894 L24.6633453,41.0891333 Z" id="Shape" fill="url(#linearGradient-6)" fill-rule="nonzero"></path>
                        <path d="M17.084369,31.9473684 C16.4013832,31.9473684 15.8226743,31.6853115 15.2993794,31.4019625 C15.0711715,31.2785774 14.838596,31.1429084 14.6087503,30.9987771 C13.9738083,30.6005052 13.342142,30.1279839 12.7312219,29.5943159 C11.8462339,28.8215211 11.0158411,27.9327114 10.2629735,26.9524549 C9.45987834,25.8679215 8.7730709,24.6785654 8.22275143,23.4196004 C7.79499815,22.4401628 7.28671697,21.1440731 7.15323174,19.8018504 C7.05769016,18.8409751 7.49881926,17.7932935 8.30437123,17.0674505 C8.86888545,16.5586234 9.58107965,16.2302334 10.2586059,16.165811 C10.3134741,16.1603515 10.3672503,16.1578947 10.4193887,16.1578947 C11.4119292,16.1578947 11.9180266,17.1018455 12.2819035,18.0250501 C12.5955528,18.8207749 12.8496934,19.9184111 12.2780818,20.6281485 C11.9319483,21.0580856 11.3742585,21.2003061 10.8348581,21.337886 C10.7122919,21.3692782 10.5905446,21.4001245 10.4720731,21.4342465 L10.3303986,21.4749199 L10.381991,21.6130457 C10.8405906,22.8419833 11.5148411,24.0343422 12.3861803,25.1570922 C13.2307678,26.3098695 14.2175758,27.2753854 15.3165769,28.0241584 L15.439689,28.107962 L15.5125736,27.9780254 C15.6367777,27.756642 15.7301354,27.5532749 15.8123012,27.3739297 C16.0620742,26.8290698 16.2127569,26.5001338 16.9022941,26.3478132 C16.9768165,26.3371671 17.0652607,26.3311617 17.1553428,26.3311617 C18.4309593,26.3311617 19.9500703,27.5199718 20.4059401,28.5425397 C20.5841934,28.9427224 20.5189521,29.4059625 20.2061217,29.9592847 C20.0265036,30.2764828 19.8026633,30.5598318 19.6462481,30.7419067 C19.057985,31.4262574 18.2109407,31.861927 17.322404,31.9372683 C17.2413302,31.9440927 17.1621671,31.9473684 17.084369,31.9473684" id="Fill-1" fill="url(#linearGradient-7)" fill-rule="evenodd"></path>
                    </g>
                </g>
                <g id="Group-Copy" opacity="0.696540179" mask="url(#mask-4)">
                    <g transform="translate(3.000000, 5.000000)">
                        <path d="M20,42.9936386 C20,43.2133619 19.9096953,43.4262984 19.7439714,43.6248129 C19.5514538,43.8589582 19.2517614,44.0718947 18.8687109,44.2610774 C17.9527637,44.7081592 16.5584996,44.9974474 15.0014885,44.9999925 C13.4454699,45.0016892 12.0541828,44.7166427 11.1322814,44.2721059 C10.7492309,44.0837717 10.4485462,43.8708352 10.2580133,43.6383865 C10.0922894,43.4390237 10,43.2269355 10,43.0072122 C10,42.9902452 10,42.9741265 10.0039694,42.956311 C10.0694651,41.8763582 12.2754788,41.0042517 14.994542,41.0000099 C17.7126129,40.9966165 19.9265654,41.8619362 19.9960306,42.9418891 C20,42.9597045 20,42.9758232 20,42.9936386" id="Fill-1" fill="#FFD54A"></path>
                        <g id="Group-5" stroke-width="1" fill="none" transform="translate(11.000000, 39.000000)">
                            <mask id="mask-9" fill="white">
                                <use xlink:href="#path-8"></use>
                            </mask>
                            <g id="Clip-4"></g>
                            <path d="M4.645,0.788 C2.264,0.7912 0.332,1.4048 0.275,2.1656 C0.272,2.1784 0.272,2.1904 0.272,2.2016 C0.272,2.3568 0.352,2.5064 0.497,2.6464 C0.663,2.8104 0.927,2.96 1.262,3.092 C2.069,3.4056 3.288,3.6056 4.651,3.604 C6.014,3.6032 7.234,3.3992 8.037,3.084 C8.372,2.9504 8.634,2.7992 8.804,2.6352 C8.949,2.4944 9.028,2.3448 9.027,2.1904 C9.027,2.1784 9.027,2.1664 9.024,2.1552 C8.963,1.396 7.034,0.788 4.662,0.788 C4.656,0.788 4.65,0.788 4.645,0.788" id="Fill-3" fill="url(#linearGradient-10)" mask="url(#mask-9)"></path>
                        </g>
                        <g id="Group-8" stroke-width="1" fill="none" transform="translate(10.000000, 42.000000)">
                            <mask id="mask-12" fill="white">
                                <use xlink:href="#path-11"></use>
                            </mask>
                            <g id="Clip-7"></g>
                            <path d="M10.43,1.1856 C10.236,1.4064 9.933,1.6072 9.548,1.7856 C8.625,2.2072 7.22,2.48 5.651,2.4824 C4.082,2.484 2.68,2.2152 1.752,1.7952 C1.365,1.6184 1.063,1.4176 0.871,1.1976 C0.704,1.0104 0.611,0.8104 0.611,0.6024 L0.613,1.6008 C0.615,2.572 2.87,3.3576 5.653,3.3552 C8.436,3.3512 10.692,2.5576 10.69,1.5864 L10.688,0.5904 C10.688,0.7968 10.597,0.9976 10.43,1.1856" id="Fill-6" fill="url(#linearGradient-13)" mask="url(#mask-12)"></path>
                        </g>
                        <path d="M20,39.9932111 C20,40.2129802 19.9096953,40.4259611 19.7439714,40.6253655 C19.5514538,40.8587111 19.2517614,41.071692 18.8687109,41.2617626 C17.9527637,41.708089 16.5584996,41.9974376 15.0014885,41.9999831 C13.4454699,42.0025287 12.0541828,41.7165743 11.1322814,41.2727934 C10.7492309,41.0835714 10.4485462,40.871439 10.2580133,40.638942 C10.091297,40.4395376 10,40.2265567 10,40.0076361 C10,39.9906655 10,39.9736949 10.0039694,39.9567243 C10.0684728,38.8756979 12.2754788,38.0034096 14.994542,38.0000155 C17.7126129,37.9957729 19.9265654,38.8612729 19.9960306,39.9422993 C20,39.9592699 20,39.9762405 20,39.9932111" id="Fill-9" fill="#FFD54A"></path>
                        <g id="Group-13" stroke-width="1" fill="none" transform="translate(10.000000, 39.000000)">
                            <mask id="mask-15" fill="white">
                                <use xlink:href="#path-14"></use>
                            </mask>
                            <g id="Clip-12"></g>
                            <path d="M5.139,0.22275 C2.758,0.2265 0.826,0.801 0.768,1.515 C0.766,1.52625 0.766,1.53675 0.766,1.54875 C0.766,1.69275 0.846,1.83375 0.991,1.965 C1.157,2.118 1.421,2.259 1.757,2.3835 C2.563,2.67675 3.782,2.865 5.144,2.86275 C6.508,2.86125 7.728,2.67 8.53,2.3745 C8.866,2.25 9.129,2.109 9.297,1.9545 C9.443,1.82325 9.522,1.683 9.521,1.5375 C9.521,1.527 9.521,1.515 9.518,1.50375 C9.457,0.792 7.528,0.22275 5.156,0.22275 C5.15,0.22275 5.144,0.22275 5.139,0.22275" id="Fill-11" fill="url(#linearGradient-16)" mask="url(#mask-15)"></path>
                        </g>
                        <g id="Group-16" stroke-width="1" fill="none" transform="translate(10.000000, 41.000000)">
                            <mask id="mask-18" fill="white">
                                <use xlink:href="#path-17"></use>
                            </mask>
                            <g id="Clip-15"></g>
                            <path d="M9.924,0.59625 C9.73,0.80175 9.427,0.99075 9.042,1.158 C8.119,1.55325 6.714,1.809 5.145,1.81125 C3.577,1.81275 2.174,1.56075 1.246,1.16775 C0.859,1.00125 0.556,0.813 0.365,0.6075 C0.197,0.432 0.105,0.24375 0.105,0.0495 L0.107,0.984 C0.109,1.8945 2.364,2.6325 5.147,2.62875 C7.93,2.625 10.186,1.88175 10.184,0.97125 L10.182,0.03675 C10.182,0.231 10.092,0.41925 9.924,0.59625" id="Fill-14" fill="url(#linearGradient-19)" mask="url(#mask-18)"></path>
                        </g>
                        <path d="M21,39.9932111 C21,40.2129802 20.9096953,40.4259611 20.7439714,40.6253655 C20.5514538,40.8595596 20.2517614,41.0716919 19.8687109,41.2617625 C18.9527637,41.7089375 17.5584996,41.998286 16.0014885,41.9999831 C14.4454699,42.0025287 13.0541828,41.7174228 12.1322814,41.2727934 C11.7492309,41.0835713 11.4485462,40.871439 11.2580133,40.6389419 C11.0922894,40.4395375 11,40.2265567 11,40.0076361 C11,39.9906655 11,39.9736949 11.0039694,39.9567243 C11.0694651,38.8756979 13.2754788,38.0042582 15.994542,38.0000155 C18.7126129,37.9957729 20.9265654,38.8612729 20.9960306,39.9422993 C21,39.9592699 21,39.9762405 21,39.9932111" id="Fill-17" fill="#FFD54A"></path>
                        <g id="Group-21" stroke-width="1" fill="none" transform="translate(12.000000, 38.000000)">
                            <mask id="mask-21" fill="white">
                                <use xlink:href="#path-20"></use>
                            </mask>
                            <g id="Clip-20"></g>
                            <path d="M4.471,0.4664 C2.09,0.4696 0.158,1.084 0.101,1.8448 C0.098,1.856 0.098,1.8696 0.098,1.8808 C0.098,2.0352 0.178,2.1848 0.323,2.3248 C0.489,2.4888 0.753,2.6392 1.089,2.7712 C1.895,3.084 3.114,3.2848 4.476,3.2832 C5.84,3.2808 7.06,3.0776 7.863,2.7624 C8.198,2.628 8.461,2.4784 8.63,2.3144 C8.775,2.1736 8.854,2.024 8.853,1.8696 C8.853,1.8568 8.853,1.8456 8.85,1.8336 C8.789,1.0736 6.861,0.4664 4.488,0.4664 C4.482,0.4664 4.476,0.4664 4.471,0.4664" id="Fill-19" fill="url(#linearGradient-22)" mask="url(#mask-21)"></path>
                        </g>
                        <g id="Group-24" stroke-width="1" fill="none" transform="translate(11.000000, 39.000000)">
                            <mask id="mask-24" fill="white">
                                <use xlink:href="#path-23"></use>
                            </mask>
                            <g id="Clip-23"></g>
                            <path d="M10.256,0.81075 C10.062,1.017 9.759,1.20525 9.374,1.37325 C8.451,1.7685 7.046,2.02425 5.477,2.02575 C3.908,2.028 2.506,1.776 1.578,1.38225 C1.191,1.21575 0.888,1.02825 0.697,0.822 C0.53,0.6465 0.437,0.45825 0.437,0.264 L0.439,1.1985 C0.442,2.10975 2.696,2.847 5.479,2.844 C8.262,2.84025 10.518,2.097 10.516,1.18575 L10.514,0.252 C10.514,0.4455 10.424,0.63375 10.256,0.81075" id="Fill-22" fill="url(#linearGradient-25)" mask="url(#mask-24)"></path>
                        </g>
                        <path d="M26,44.9932083 C26,45.2129777 25.9096953,45.4259589 25.7439714,45.6253636 C25.5514538,45.859558 25.2517614,46.0716906 24.8687109,46.2617615 C23.9527637,46.7089371 22.5584996,46.998286 21.0014885,46.9999831 C19.4454699,47.0025287 18.0541828,46.7174224 17.1322814,46.2727924 C16.7492309,46.0844186 16.4485462,45.8714374 16.2580133,45.63894 C16.0922894,45.4395354 16,45.2265542 16,45.0076333 C16,44.9906627 16,44.9745406 16.0039694,44.9567215 C16.0694651,43.8756935 18.2754788,43.0042526 20.994542,43.0000099 C23.7126129,42.9966158 25.9265654,43.862117 25.9960306,44.9422964 C26,44.9601156 26,44.9762377 26,44.9932083" id="Fill-44" fill="#FFD54A"></path>
                        <g id="Group-48" stroke-width="1" fill="none" transform="translate(16.000000, 43.000000)">
                            <mask id="mask-27" fill="white">
                                <use xlink:href="#path-26"></use>
                            </mask>
                            <g id="Clip-47"></g>
                            <path d="M4.695,0.6336 C2.315,0.636 0.383,1.2504 0.325,2.0112 C0.321,2.024 0.321,2.0352 0.321,2.0472 C0.322,2.2024 0.402,2.352 0.547,2.492 C0.714,2.656 0.977,2.8048 1.313,2.9384 C2.12,3.2512 3.338,3.4512 4.701,3.4496 C6.063,3.448 7.285,3.244 8.087,2.9296 C8.421,2.7952 8.684,2.6448 8.854,2.4808 C8.999,2.3408 9.078,2.1904 9.077,2.0352 C9.077,2.024 9.077,2.012 9.074,2.0008 C9.014,1.2408 7.086,0.6336 4.716,0.6336 C4.709,0.6336 4.702,0.6336 4.695,0.6336" id="Fill-46" fill="url(#linearGradient-28)" mask="url(#mask-27)"></path>
                        </g>
                        <g id="Group-51" stroke-width="1" fill="none" transform="translate(15.000000, 45.000000)">
                            <mask id="mask-30" fill="white">
                                <use xlink:href="#path-29"></use>
                            </mask>
                            <g id="Clip-50"></g>
                            <path d="M10.481,0.966 C10.286,1.173 9.984,1.36125 9.598,1.52925 C8.675,1.9245 7.27,2.1795 5.702,2.181 C4.133,2.184 2.731,1.93125 1.803,1.53825 C1.416,1.37175 1.113,1.18425 0.921,0.97875 C0.753,0.8025 0.662,0.6135 0.661,0.42 L0.663,1.3545 C0.665,2.26275 2.908,2.99925 5.679,3 L5.704,3 C8.486,2.99625 10.742,2.25375 10.74,1.3425 L10.738,0.40725 C10.739,0.6015 10.647,0.78975 10.481,0.966" id="Fill-49" fill="url(#linearGradient-31)" mask="url(#mask-30)"></path>
                        </g>
                        <path d="M25,43.9932083 C25,44.2129777 24.9096953,44.4259589 24.7439714,44.6253636 C24.5514538,44.859558 24.2517614,45.0716906 23.8687109,45.2617615 C22.9527637,45.7089371 21.5584996,45.998286 20.0014885,45.9999831 C18.4454699,46.0025287 17.0541828,45.7174224 16.1322814,45.2727924 C15.7492309,45.0844186 15.4485462,44.8714374 15.2580133,44.63894 C15.091297,44.4395354 15,44.2265542 15,44.0076333 C15,43.9906627 15,43.9745406 15.0039694,43.9567215 C15.0684728,42.8756935 17.2754788,42.0042526 19.994542,42.0000099 C22.7126129,41.9966158 24.9265654,42.862117 24.9960306,43.9422964 C25,43.9601156 25,43.9762377 25,43.9932083" id="Fill-52" fill="#FFD54A"></path>
                        <g id="Group-56" stroke-width="1" fill="none" transform="translate(16.000000, 42.000000)">
                            <mask id="mask-33" fill="white">
                                <use xlink:href="#path-32"></use>
                            </mask>
                            <g id="Clip-55"></g>
                            <path d="M4.51,0.4352 C2.13,0.4384 0.197,1.0528 0.141,1.8136 C0.137,1.8264 0.137,1.8384 0.137,1.8496 C0.137,2.004 0.217,2.1544 0.363,2.2936 C0.529,2.4576 0.792,2.608 1.129,2.74 C1.935,3.0528 3.153,3.2536 4.516,3.252 C5.879,3.2504 7.1,3.0464 7.902,2.7312 C8.237,2.5968 8.5,2.4472 8.669,2.2832 C8.814,2.1424 8.893,1.9928 8.893,1.8384 C8.893,1.8264 8.893,1.8144 8.889,1.8024 C8.829,1.0424 6.9,0.4352 4.527,0.4352 C4.521,0.4352 4.516,0.4352 4.51,0.4352" id="Fill-54" fill="url(#linearGradient-34)" mask="url(#mask-33)"></path>
                        </g>
                        <g id="Group-59" stroke-width="1" fill="none" transform="translate(15.000000, 44.000000)">
                            <mask id="mask-36" fill="white">
                                <use xlink:href="#path-35"></use>
                            </mask>
                            <g id="Clip-58"></g>
                            <path d="M10.296,0.7815 C10.102,0.98775 9.799,1.17525 9.413,1.344 C8.491,1.73925 7.085,1.995 5.517,1.9965 C3.949,1.99875 2.546,1.74675 1.618,1.353 C1.231,1.18725 0.928,0.999 0.736,0.79275 C0.569,0.61725 0.477,0.429 0.476,0.23475 L0.478,1.16925 C0.48,2.0805 2.735,2.81775 5.518,2.81475 C8.302,2.811 10.557,2.06775 10.555,1.1565 L10.554,0.22275 C10.555,0.41625 10.463,0.6045 10.296,0.7815" id="Fill-57" fill="url(#linearGradient-37)" mask="url(#mask-36)"></path>
                        </g>
                        <path d="M28.9380904,46.0294394 C28.8556753,46.2464013 28.6955278,46.4294351 28.473569,46.5758621 C28.2141488,46.7481816 27.8676308,46.8660375 27.4564919,46.9365725 C26.4759397,47.097285 25.1301388,46.9553223 23.7478131,46.4794345 C22.3664239,46.0035468 21.2397722,45.293733 20.5898168,44.5705265 C20.3210313,44.2660655 20.1346608,43.964283 20.0541188,43.6750004 C19.981069,43.4276817 19.9801325,43.1883985 20.0625476,42.9714366 C20.0691033,42.9553653 20.0756591,42.9384012 20.0850244,42.9232228 C20.5504824,41.8741269 22.8365645,41.6902004 25.2490788,42.5205486 C27.6615931,43.3517896 29.299593,44.8883802 28.9540115,45.9776542 C28.9512019,45.996404 28.9446462,46.0124753 28.9380904,46.0294394" id="Fill-60" fill="#FFD54A"></path>
                        <g id="Group-64" stroke-width="1" fill="none" transform="translate(20.000000, 42.000000)">
                            <mask id="mask-39" fill="white">
                                <use xlink:href="#path-38"></use>
                            </mask>
                            <g id="Clip-63"></g>
                            <path d="M0.663,0.976 C0.655,0.9864 0.649,0.9968 0.645,1.0096 C0.579,1.1544 0.59,1.3168 0.667,1.488 C0.754,1.6872 0.937,1.9008 1.197,2.1168 C1.821,2.6304 2.88,3.152 4.162,3.5232 C5.445,3.8936 6.678,4.0352 7.567,3.9584 C7.939,3.9248 8.25,3.8544 8.479,3.7464 C8.676,3.6544 8.814,3.5352 8.879,3.3896 C8.884,3.3784 8.89,3.3672 8.892,3.3552 C9.16,2.6232 7.597,1.5216 5.359,0.8744 C4.302,0.5688 3.281,0.4184 2.458,0.4184 C1.537,0.4184 0.863,0.6064 0.663,0.976" id="Fill-62" fill="url(#linearGradient-40)" mask="url(#mask-39)"></path>
                        </g>
                        <g id="Group-67" stroke-width="1" fill="none" transform="translate(19.000000, 43.000000)">
                            <mask id="mask-42" fill="white">
                                <use xlink:href="#path-41"></use>
                            </mask>
                            <g id="Clip-66"></g>
                            <path d="M0.6,1.00666667 C0.188,1.95916667 1.971,3.37083333 4.588,4.15916667 C7.205,4.9475 9.665,4.81333333 10.077,3.86083333 L10.5,2.88416667 C10.413,3.08666667 10.241,3.2575 10.004,3.395 C9.728,3.555 9.357,3.66583333 8.919,3.73083333 C7.871,3.88166667 6.435,3.74916667 4.959,3.30416667 C3.484,2.86 2.28,2.19833333 1.586,1.52333333 C1.299,1.23833333 1.1,0.956666667 1.014,0.6875 C0.937,0.455833333 0.936,0.233333333 1.023,0.0308333333 L0.6,1.00666667 Z" id="Fill-65" fill="url(#linearGradient-43)" mask="url(#mask-42)"></path>
                        </g>
                        <path d="M56,44.9932157 C56,45.2129854 55.9096953,45.4259668 55.7439714,45.6253716 C55.5514538,45.8587178 55.2517614,46.0716991 54.8687109,46.2617702 C53.9527637,46.7080977 52.5584996,46.9974469 51.0014885,46.9999925 C49.4454699,47.0016895 48.0541828,46.716583 47.1322814,46.2728011 C46.7492309,46.0835786 46.4485462,45.8714457 46.2580133,45.6389481 C46.091297,45.4395433 46,45.2265619 46,45.0076408 C46,44.9898216 46,44.9736995 46.0039694,44.9567289 C46.0684728,43.8756999 48.2754788,43.0034097 50.994542,43.0000155 C53.7126129,42.9957729 55.9265654,43.8612749 55.9960306,44.9423039 C56,44.9592745 56,44.9753966 56,44.9932157" id="Fill-68" fill="#FFD54A"></path>
                        <g id="Group-72" stroke-width="1" fill="none" transform="translate(47.000000, 43.000000)">
                            <mask id="mask-45" fill="white">
                                <use xlink:href="#path-44"></use>
                            </mask>
                            <g id="Clip-71"></g>
                            <path d="M4.651,0.2565 C2.27,0.25875 0.338,0.834 0.28,1.548 C0.278,1.55925 0.278,1.56975 0.278,1.58025 C0.278,1.72575 0.358,1.86675 0.503,1.998 C0.669,2.15175 0.933,2.292 1.268,2.41575 C2.075,2.709 3.294,2.89725 4.656,2.89575 C6.02,2.89425 7.24,2.703 8.043,2.4075 C8.378,2.283 8.64,2.142 8.809,1.9875 C8.954,1.8555 9.034,1.716 9.033,1.5705 C9.033,1.55925 9.033,1.548 9.03,1.53675 C8.969,0.825 7.042,0.2565 4.672,0.2565 C4.665,0.2565 4.658,0.2565 4.651,0.2565" id="Fill-70" fill="url(#linearGradient-46)" mask="url(#mask-45)"></path>
                        </g>
                        <g id="Group-75" stroke-width="1" fill="none" transform="translate(46.000000, 45.000000)">
                            <mask id="mask-48" fill="white">
                                <use xlink:href="#path-47"></use>
                            </mask>
                            <g id="Clip-74"></g>
                            <path d="M10.436,0.6285 C10.242,0.83475 9.939,1.02375 9.554,1.191 C8.631,1.58625 7.226,1.842 5.657,1.8435 C4.088,1.845 2.686,1.593 1.757,1.20075 C1.371,1.0335 1.068,0.846 0.877,0.6405 C0.709,0.465 0.617,0.276 0.617,0.0825 L0.619,1.017 C0.621,1.9275 2.876,2.66625 5.659,2.66175 C8.442,2.65875 10.698,1.91475 10.696,1.005 L10.693,0.06975 C10.694,0.264 10.603,0.45225 10.436,0.6285" id="Fill-73" fill="url(#linearGradient-49)" mask="url(#mask-48)"></path>
                        </g>
                        <path d="M60.9585441,46.7875672 C60.8869923,47.0237242 60.727534,47.2287085 60.4985683,47.3987415 C60.2297381,47.5990026 59.8638018,47.7501431 59.421203,47.8540522 C58.3673475,48.095877 56.8913365,48.044867 55.3468402,47.6434001 C53.8033661,47.2428779 52.5174784,46.5769151 51.74983,45.8627764 C51.4319357,45.5604954 51.20297,45.2553806 51.0915536,44.9568781 C50.9913811,44.6999393 50.9709378,44.4486683 51.0424895,44.2134559 C51.0476004,44.195508 51.0537334,44.1766154 51.0629329,44.1605567 C51.4820219,43.0194461 53.954647,42.656709 56.6501048,43.3566783 C59.3455625,44.0566477 61.2570172,45.5567169 60.9718323,46.7327788 C60.9697879,46.7516713 60.9646771,46.7696193 60.9585441,46.7875672" id="Fill-76" fill="#FFD54A"></path>
                        <g id="Group-80" stroke-width="1" fill="none" transform="translate(52.000000, 42.000000)">
                            <mask id="mask-51" fill="white">
                                <use xlink:href="#path-50"></use>
                            </mask>
                            <g id="Clip-79"></g>
                            <path d="M0.237,1.475 C0.23,1.48666667 0.226,1.49833333 0.221,1.51 C0.169,1.66583333 0.195,1.8325 0.288,2.00666667 C0.392,2.20916667 0.595,2.4175 0.873,2.62666667 C1.542,3.12416667 2.647,3.60166667 3.959,3.90833333 C5.271,4.21583333 6.515,4.28833333 7.394,4.15416667 C7.761,4.09666667 8.066,4.005 8.284,3.87916667 C8.471,3.77083333 8.599,3.63916667 8.652,3.48333333 C8.655,3.4725 8.659,3.46 8.66,3.44666667 C8.861,2.67083333 7.202,1.62083333 4.911,1.08416667 C4.016,0.875 3.154,0.774166667 2.419,0.774166667 C1.271,0.774166667 0.429,1.01833333 0.237,1.475" id="Fill-78" fill="url(#linearGradient-52)" mask="url(#mask-51)"></path>
                        </g>
                        <g id="Group-83" stroke-width="1" fill="none" transform="translate(51.000000, 43.000000)">
                            <mask id="mask-54" fill="white">
                                <use xlink:href="#path-53"></use>
                            </mask>
                            <g id="Clip-82"></g>
                            <path d="M0.249,1.52833333 C-0.079,2.50166667 1.822,3.8025 4.502,4.43 C7.182,5.05666667 9.622,4.77333333 9.95,3.79916667 L10.287,2.79916667 C10.217,3.0075 10.061,3.18833333 9.837,3.33916667 C9.574,3.515 9.216,3.6475 8.783,3.74 C7.752,3.95333333 6.307,3.90833333 4.797,3.55416667 C3.287,3.20083333 2.029,2.61333333 1.278,1.9825 C0.967,1.71666667 0.743,1.4475 0.633,1.18416667 C0.536,0.9575 0.516,0.735833333 0.586,0.528333333 L0.249,1.52833333 Z" id="Fill-81" fill="url(#linearGradient-55)" mask="url(#mask-54)"></path>
                        </g>
                        <path d="M58.251125,26.8165 C58.251125,26.8165 60.813125,28.647 60.790375,31.892375 L64.60625,30.306875 C64.60625,30.306875 63.5895,26.224125 60.790375,25.40075 L58.251125,26.8165 Z" id="Fill-87" fill="url(#linearGradient-56)"></path>
                        <g id="Group-92" stroke-width="1" fill="none" transform="translate(0.000000, 23.000000)">
                            <mask id="mask-58" fill="white">
                                <use xlink:href="#path-57"></use>
                            </mask>
                            <g id="Clip-91"></g>
                            <path d="M8.073,0.77 C5.40242857,4.031 0,4.862 0,4.862 L5.28357143,8.058 C7.65792857,8.058 12.7632143,2.304 12.7632143,2.304 C12.7632143,2.304 8.93564286,0.74 8.18907143,0.74 C8.12964286,0.74 8.09064286,0.749 8.073,0.77" id="Fill-90" fill="url(#linearGradient-59)" mask="url(#mask-58)"></path>
                        </g>
                    </g>
                </g>
            </g>
        </g>
    </g>
</svg>