<?xml version="1.0" encoding="UTF-8"?>
<svg width="24px" height="24px" viewBox="0 0 24 24" version="1.1" xmlns="http://www.w3.org/2000/svg" xmlns:xlink="http://www.w3.org/1999/xlink">
    <!-- Generator: Sketch 50.2 (55047) - http://www.bohemiancoding.com/sketch -->
    <title>my_login_password_ic</title>
    <desc>Created with Sketch.</desc>
    <defs></defs>
    <g id="Page-1" stroke="none" stroke-width="1" fill="none" fill-rule="evenodd">
        <g id="P1登录页面" transform="translate(-20.000000, -247.000000)" fill="#D5DBDD">
            <g id="Group-10" transform="translate(20.000000, 246.000000)">
                <g id="Group-9">
                    <g id="验证码" transform="translate(11.196152, 13.392305) scale(1, -1) rotate(-30.000000) translate(-11.196152, -13.392305) translate(5.196152, 1.392305)">
                        <path d="M6,24 C2.6862915,24 -1.13686838e-13,21.3137085 -1.13686838e-13,18 C-1.13686838e-13,14.6862915 2.6862915,12 6,12 C9.3137085,12 12,14.6862915 12,18 C12,21.3137085 9.3137085,24 6,24 Z M6,22 C8.209139,22 10,20.209139 10,18 C10,15.790861 8.209139,14 6,14 C3.790861,14 2,15.790861 2,18 C2,20.209139 3.790861,22 6,22 Z" id="Combined-Shape"></path>
                        <rect id="Rectangle-3" x="5" y="0" width="2" height="13" rx="1"></rect>
                        <path d="M9.5,6.5 L9.5,6.5 C10.0522847,6.5 10.5,6.94771525 10.5,7.5 L10.5,11.5 L8.5,11.5 L8.5,7.5 C8.5,6.94771525 8.94771525,6.5 9.5,6.5 Z" id="Rectangle-3" transform="translate(9.500000, 9.000000) rotate(90.000000) translate(-9.500000, -9.000000) "></path>
                        <path d="M9.5,2.5 L9.5,2.5 C10.0522847,2.5 10.5,2.94771525 10.5,3.5 L10.5,7.5 L8.5,7.5 L8.5,3.5 C8.5,2.94771525 8.94771525,2.5 9.5,2.5 Z" id="Rectangle-3" transform="translate(9.500000, 5.000000) rotate(90.000000) translate(-9.500000, -5.000000) "></path>
                    </g>
                </g>
            </g>
        </g>
    </g>
</svg>