<?xml version="1.0" encoding="UTF-8"?>
<svg width="24px" height="24px" viewBox="0 0 24 24" version="1.1" xmlns="http://www.w3.org/2000/svg" xmlns:xlink="http://www.w3.org/1999/xlink">
    <!-- Generator: Sketch 50.2 (55047) - http://www.bohemiancoding.com/sketch -->
    <title>my_login_mobile_ic</title>
    <desc>Created with Sketch.</desc>
    <defs></defs>
    <g id="Page-1" stroke="none" stroke-width="1" fill="none" fill-rule="evenodd">
        <g id="P1登录页面" transform="translate(-20.000000, -181.000000)" fill="#D5DBDD" fill-rule="nonzero">
            <g id="Group-10" transform="translate(20.000000, 181.000000)">
                <g id="Group-9">
                    <g id="手机" transform="translate(5.000000, 0.000000)">
                        <path d="M13.1403619,2.27070152e-05 L1.6607304,2.27070152e-05 C1.6607304,2.27070152e-05 0.0121461315,-0.0262154952 0.0121461315,1.70512832 L0.00357085061,22.2783059 C0.00357085061,22.2783059 -0.151080835,23.9754834 1.57513939,23.9754834 L13.2174315,23.9754834 C13.2174315,23.9754834 14.8146989,24.0006429 14.8146989,22.3474205 L14.8146989,1.70582945 C14.8146989,1.70582945 14.8649371,0.000130572184 13.1403888,0.000130572184 L13.1403619,2.27070152e-05 Z M6.16008321,0.82829237 L8.630654,0.82829237 C8.85857757,0.82829237 9.04334613,1.01306093 9.04334613,1.2409845 L9.04334613,1.2409845 C9.04334613,1.46890808 8.85857757,1.65367664 8.630654,1.65367664 L6.16008321,1.65367664 C5.93215964,1.65367664 5.74739108,1.46890808 5.74739108,1.2409845 L5.74739108,1.2409845 C5.74739108,1.01306093 5.93215964,0.82829237 6.16008321,0.82829237 Z M4.51101355,0.82829237 C4.73936411,0.82829237 4.92373265,1.01217552 4.92373265,1.24036428 C4.92373265,1.46855304 4.7398495,1.65421597 4.51101355,1.65421597 C4.28382254,1.65421597 4.09942703,1.46928113 4.09942703,1.24036428 C4.09942703,1.01204068 4.28314838,0.82829237 4.51101355,0.82829237 Z M7.39597534,22.3216407 C6.93994838,22.3216407 6.57169669,21.951771 6.57169669,21.4950429 C6.57169669,21.039016 6.94043377,20.6679059 7.39597534,20.6679059 C7.85151692,20.6679059 8.220254,21.038962 8.220254,21.4950429 C8.22084726,21.9511508 7.85151692,22.3216407 7.39597534,22.3216407 Z M13.1997147,19.0141441 L1.59166973,19.0141441 L1.59166973,2.47973507 L13.1997147,2.47973507 L13.1997147,19.0141441 Z" id="Shape"></path>
                    </g>
                </g>
            </g>
        </g>
    </g>
</svg>